<mxfile host="drawio-plugin" modified="2023-01-21T10:08:57.820Z" agent="5.0 (Windows NT 6.2; Win64; x64) AppleWebKit/537.36 (KHTML, like Gecko) Chrome/97.0.4692.45 Safari/537.36" etag="L3kR7a11FogaGXczh21I" version="20.5.3" type="embed"><diagram name="Страница 1" id="LBHIT9SBYUljP0mvMABB"><mxGraphModel dx="251" dy="205" grid="1" gridSize="10" guides="1" tooltips="1" connect="1" arrows="1" fold="1" page="1" pageScale="1" pageWidth="827" pageHeight="1169" math="0" shadow="0"><root><mxCell id="0"/><mxCell id="1" parent="0"/><mxCell id="6kmkd4a9-Tb4QfNJwLFY-58" value="" style="rounded=1;whiteSpace=wrap;html=1;" parent="1" vertex="1"><mxGeometry x="530" y="340" width="160" height="60" as="geometry"/></mxCell><mxCell id="6kmkd4a9-Tb4QfNJwLFY-59" value="" style="rounded=1;whiteSpace=wrap;html=1;" parent="1" vertex="1"><mxGeometry x="535" y="345" width="160" height="60" as="geometry"/></mxCell><mxCell id="6kmkd4a9-Tb4QfNJwLFY-9" style="edgeStyle=orthogonalEdgeStyle;rounded=0;orthogonalLoop=1;jettySize=auto;html=1;" parent="1" source="6kmkd4a9-Tb4QfNJwLFY-1" target="6kmkd4a9-Tb4QfNJwLFY-3" edge="1"><mxGeometry relative="1" as="geometry"/></mxCell><mxCell id="6kmkd4a9-Tb4QfNJwLFY-1" value="StarBunBot" style="rounded=1;whiteSpace=wrap;html=1;" parent="1" vertex="1"><mxGeometry x="30" y="120" width="120" height="60" as="geometry"/></mxCell><mxCell id="6kmkd4a9-Tb4QfNJwLFY-3" value="UpdateResolver" style="rounded=1;whiteSpace=wrap;html=1;" parent="1" vertex="1"><mxGeometry x="30" y="230" width="120" height="60" as="geometry"/></mxCell><mxCell id="6kmkd4a9-Tb4QfNJwLFY-7" style="edgeStyle=orthogonalEdgeStyle;rounded=0;orthogonalLoop=1;jettySize=auto;html=1;" parent="1" source="6kmkd4a9-Tb4QfNJwLFY-5" target="6kmkd4a9-Tb4QfNJwLFY-1" edge="1"><mxGeometry relative="1" as="geometry"/></mxCell><mxCell id="6kmkd4a9-Tb4QfNJwLFY-5" value="Telegram API" style="rounded=1;whiteSpace=wrap;html=1;" parent="1" vertex="1"><mxGeometry x="30" y="10" width="120" height="60" as="geometry"/></mxCell><mxCell id="6kmkd4a9-Tb4QfNJwLFY-8" value="Присылает&lt;br&gt;Update" style="text;html=1;align=left;verticalAlign=middle;resizable=0;points=[];autosize=1;strokeColor=none;fillColor=none;" parent="1" vertex="1"><mxGeometry x="99" y="75" width="90" height="40" as="geometry"/></mxCell><mxCell id="6kmkd4a9-Tb4QfNJwLFY-10" value="Передаёт&lt;br&gt;Update в..." style="text;html=1;align=left;verticalAlign=middle;resizable=0;points=[];autosize=1;strokeColor=none;fillColor=none;" parent="1" vertex="1"><mxGeometry x="100" y="185" width="80" height="40" as="geometry"/></mxCell><mxCell id="6kmkd4a9-Tb4QfNJwLFY-11" value="" style="rounded=1;whiteSpace=wrap;html=1;" parent="1" vertex="1"><mxGeometry x="10" y="340" width="140" height="60" as="geometry"/></mxCell><mxCell id="6kmkd4a9-Tb4QfNJwLFY-2" value="" style="rounded=1;whiteSpace=wrap;html=1;" parent="1" vertex="1"><mxGeometry x="15" y="345" width="140" height="60" as="geometry"/></mxCell><mxCell id="6kmkd4a9-Tb4QfNJwLFY-12" value="BotApiObjectProcessor" style="rounded=1;whiteSpace=wrap;html=1;" parent="1" vertex="1"><mxGeometry x="20" y="350" width="140" height="60" as="geometry"/></mxCell><mxCell id="6kmkd4a9-Tb4QfNJwLFY-14" style="edgeStyle=orthogonalEdgeStyle;rounded=0;orthogonalLoop=1;jettySize=auto;html=1;" parent="1" source="6kmkd4a9-Tb4QfNJwLFY-3" target="6kmkd4a9-Tb4QfNJwLFY-12" edge="1"><mxGeometry relative="1" as="geometry"/></mxCell><mxCell id="6kmkd4a9-Tb4QfNJwLFY-15" value="Передаёт в &lt;br&gt;конкретный..." style="text;html=1;align=left;verticalAlign=middle;resizable=0;points=[];autosize=1;strokeColor=none;fillColor=none;" parent="1" vertex="1"><mxGeometry x="99" y="290" width="100" height="40" as="geometry"/></mxCell><mxCell id="6kmkd4a9-Tb4QfNJwLFY-26" style="edgeStyle=orthogonalEdgeStyle;rounded=0;orthogonalLoop=1;jettySize=auto;html=1;" parent="1" source="6kmkd4a9-Tb4QfNJwLFY-20" target="6kmkd4a9-Tb4QfNJwLFY-22" edge="1"><mxGeometry relative="1" as="geometry"><Array as="points"><mxPoint x="360" y="140"/></Array></mxGeometry></mxCell><mxCell id="6kmkd4a9-Tb4QfNJwLFY-20" value="Конкретный&lt;br&gt;BotApiObjectProcessor" style="rounded=1;whiteSpace=wrap;html=1;" parent="1" vertex="1"><mxGeometry x="290" y="10" width="140" height="60" as="geometry"/></mxCell><mxCell id="6kmkd4a9-Tb4QfNJwLFY-22" value="CommandsLifeCycleManager" style="rounded=1;whiteSpace=wrap;html=1;" parent="1" vertex="1"><mxGeometry x="414" y="120" width="180" height="60" as="geometry"/></mxCell><mxCell id="6kmkd4a9-Tb4QfNJwLFY-52" style="edgeStyle=orthogonalEdgeStyle;rounded=0;orthogonalLoop=1;jettySize=auto;html=1;" parent="1" source="6kmkd4a9-Tb4QfNJwLFY-23" target="6kmkd4a9-Tb4QfNJwLFY-47" edge="1"><mxGeometry relative="1" as="geometry"/></mxCell><mxCell id="6kmkd4a9-Tb4QfNJwLFY-37" style="edgeStyle=orthogonalEdgeStyle;rounded=0;orthogonalLoop=1;jettySize=auto;html=1;" parent="1" source="6kmkd4a9-Tb4QfNJwLFY-24" target="6kmkd4a9-Tb4QfNJwLFY-25" edge="1"><mxGeometry relative="1" as="geometry"><Array as="points"><mxPoint x="640" y="320"/><mxPoint x="640" y="320"/></Array></mxGeometry></mxCell><mxCell id="6kmkd4a9-Tb4QfNJwLFY-38" style="edgeStyle=orthogonalEdgeStyle;rounded=0;orthogonalLoop=1;jettySize=auto;html=1;" parent="1" source="6kmkd4a9-Tb4QfNJwLFY-25" target="6kmkd4a9-Tb4QfNJwLFY-24" edge="1"><mxGeometry relative="1" as="geometry"><Array as="points"><mxPoint x="600" y="320"/><mxPoint x="600" y="320"/></Array></mxGeometry></mxCell><mxCell id="6kmkd4a9-Tb4QfNJwLFY-25" value="CommadStateProcessor" style="rounded=1;whiteSpace=wrap;html=1;" parent="1" vertex="1"><mxGeometry x="540" y="350" width="160" height="60" as="geometry"/></mxCell><mxCell id="6kmkd4a9-Tb4QfNJwLFY-30" value="Запрашивает&lt;br&gt;&quot;команду&quot; &lt;br&gt;пользователя" style="text;html=1;align=left;verticalAlign=middle;resizable=0;points=[];autosize=1;strokeColor=none;fillColor=none;" parent="1" vertex="1"><mxGeometry x="245" y="75" width="100" height="60" as="geometry"/></mxCell><mxCell id="6kmkd4a9-Tb4QfNJwLFY-31" value="&lt;div style=&quot;&quot;&gt;&lt;span style=&quot;background-color: initial;&quot;&gt;Даёт &quot;команду&quot; &lt;br&gt;с которой работает&lt;br&gt;пользователь&lt;/span&gt;&lt;/div&gt;" style="text;html=1;align=left;verticalAlign=middle;resizable=0;points=[];autosize=1;strokeColor=none;fillColor=none;" parent="1" vertex="1"><mxGeometry x="245" y="160" width="130" height="60" as="geometry"/></mxCell><mxCell id="6kmkd4a9-Tb4QfNJwLFY-35" value="Выполняет&lt;br&gt;Action" style="text;html=1;align=center;verticalAlign=middle;resizable=0;points=[];autosize=1;strokeColor=none;fillColor=none;" parent="1" vertex="1"><mxGeometry x="440" y="200" width="80" height="40" as="geometry"/></mxCell><mxCell id="6kmkd4a9-Tb4QfNJwLFY-42" value="Исполняет&lt;br&gt;ProcessorRequest" style="text;html=1;align=center;verticalAlign=middle;resizable=0;points=[];autosize=1;strokeColor=none;fillColor=none;" parent="1" vertex="1"><mxGeometry x="640" y="290" width="120" height="40" as="geometry"/></mxCell><mxCell id="6kmkd4a9-Tb4QfNJwLFY-43" value="Возвращает&lt;br&gt;ProcessorResponse&lt;br&gt;(вкл. новое состояние)" style="text;html=1;align=center;verticalAlign=middle;resizable=0;points=[];autosize=1;strokeColor=none;fillColor=none;" parent="1" vertex="1"><mxGeometry x="460" y="285" width="150" height="60" as="geometry"/></mxCell><mxCell id="6kmkd4a9-Tb4QfNJwLFY-45" value="Возвращает&lt;br&gt;ActionResponse" style="text;html=1;align=center;verticalAlign=middle;resizable=0;points=[];autosize=1;strokeColor=none;fillColor=none;" parent="1" vertex="1"><mxGeometry x="425" y="240" width="110" height="40" as="geometry"/></mxCell><mxCell id="6kmkd4a9-Tb4QfNJwLFY-50" style="edgeStyle=orthogonalEdgeStyle;rounded=0;orthogonalLoop=1;jettySize=auto;html=1;" parent="1" source="6kmkd4a9-Tb4QfNJwLFY-47" target="6kmkd4a9-Tb4QfNJwLFY-49" edge="1"><mxGeometry relative="1" as="geometry"/></mxCell><mxCell id="6kmkd4a9-Tb4QfNJwLFY-47" value="CommandResponseResolver" style="rounded=1;whiteSpace=wrap;html=1;" parent="1" vertex="1"><mxGeometry x="272" y="350" width="176" height="60" as="geometry"/></mxCell><mxCell id="6kmkd4a9-Tb4QfNJwLFY-49" value="Telegram API" style="rounded=1;whiteSpace=wrap;html=1;" parent="1" vertex="1"><mxGeometry x="300" y="460" width="120" height="60" as="geometry"/></mxCell><mxCell id="6kmkd4a9-Tb4QfNJwLFY-51" value="Отправляет&lt;br&gt;BotApiMethod" style="text;html=1;align=left;verticalAlign=middle;resizable=0;points=[];autosize=1;strokeColor=none;fillColor=none;" parent="1" vertex="1"><mxGeometry x="370" y="416" width="100" height="40" as="geometry"/></mxCell><mxCell id="6kmkd4a9-Tb4QfNJwLFY-53" value="&lt;div style=&quot;&quot;&gt;Создаёт&lt;br&gt;CommandResponse&lt;/div&gt;" style="text;html=1;align=left;verticalAlign=middle;resizable=0;points=[];autosize=1;strokeColor=none;fillColor=none;" parent="1" vertex="1"><mxGeometry x="240" y="300" width="130" height="40" as="geometry"/></mxCell><mxCell id="6kmkd4a9-Tb4QfNJwLFY-55" value="" style="rounded=1;whiteSpace=wrap;html=1;" parent="1" vertex="1"><mxGeometry x="290" y="220" width="120" height="60" as="geometry"/></mxCell><mxCell id="6kmkd4a9-Tb4QfNJwLFY-54" value="" style="rounded=1;whiteSpace=wrap;html=1;" parent="1" vertex="1"><mxGeometry x="295" y="225" width="120" height="60" as="geometry"/></mxCell><mxCell id="6kmkd4a9-Tb4QfNJwLFY-23" value="AbstractCommand" style="rounded=1;whiteSpace=wrap;html=1;" parent="1" vertex="1"><mxGeometry x="300" y="230" width="120" height="60" as="geometry"/></mxCell><mxCell id="6kmkd4a9-Tb4QfNJwLFY-29" style="edgeStyle=orthogonalEdgeStyle;rounded=0;orthogonalLoop=1;jettySize=auto;html=1;" parent="1" source="6kmkd4a9-Tb4QfNJwLFY-22" target="6kmkd4a9-Tb4QfNJwLFY-23" edge="1"><mxGeometry relative="1" as="geometry"><Array as="points"><mxPoint x="360" y="160"/></Array></mxGeometry></mxCell><mxCell id="6kmkd4a9-Tb4QfNJwLFY-56" value="" style="rounded=1;whiteSpace=wrap;html=1;" parent="1" vertex="1"><mxGeometry x="530" y="220" width="160" height="60" as="geometry"/></mxCell><mxCell id="6kmkd4a9-Tb4QfNJwLFY-57" value="" style="rounded=1;whiteSpace=wrap;html=1;" parent="1" vertex="1"><mxGeometry x="535" y="225" width="160" height="60" as="geometry"/></mxCell><mxCell id="6kmkd4a9-Tb4QfNJwLFY-24" value="AbstractStateMachine" style="rounded=1;whiteSpace=wrap;html=1;" parent="1" vertex="1"><mxGeometry x="540" y="230" width="160" height="60" as="geometry"/></mxCell><mxCell id="6kmkd4a9-Tb4QfNJwLFY-34" style="edgeStyle=orthogonalEdgeStyle;rounded=0;orthogonalLoop=1;jettySize=auto;html=1;" parent="1" source="6kmkd4a9-Tb4QfNJwLFY-23" target="6kmkd4a9-Tb4QfNJwLFY-24" edge="1"><mxGeometry relative="1" as="geometry"><Array as="points"><mxPoint x="470" y="240"/><mxPoint x="470" y="240"/></Array></mxGeometry></mxCell><mxCell id="6kmkd4a9-Tb4QfNJwLFY-39" style="edgeStyle=orthogonalEdgeStyle;rounded=0;orthogonalLoop=1;jettySize=auto;html=1;" parent="1" source="6kmkd4a9-Tb4QfNJwLFY-24" target="6kmkd4a9-Tb4QfNJwLFY-23" edge="1"><mxGeometry relative="1" as="geometry"><Array as="points"><mxPoint x="460" y="280"/><mxPoint x="460" y="280"/></Array></mxGeometry></mxCell></root></mxGraphModel></diagram></mxfile>